<?xml version="1.0" encoding="UTF-8"?>
<svg version="1.1" xmlns="http://www.w3.org/2000/svg" width="960" height="1914">
<path d="M0 0 C0.9553212 -0.0066568 1.9106424 -0.0133136 2.89491272 -0.02017212 C4.91128621 -0.0302775 6.92769301 -0.03498979 8.9440918 -0.03466797 C12.02123275 -0.03904271 15.09694055 -0.07538915 18.17382812 -0.11328125 C20.13671386 -0.11914961 22.09960639 -0.12311887 24.0625 -0.125 C24.9782933 -0.13937103 25.89408661 -0.15374207 26.83763123 -0.16854858 C32.43879255 -0.12867291 35.66045582 0.58705267 40.09765625 4.3359375 C44.67502829 9.29475721 46.3720385 13.53782904 46.25671387 20.26533508 C46.24132065 21.45909319 46.22592743 22.6528513 46.21006775 23.88278389 C46.18263992 25.18901648 46.1552121 26.49524906 46.12695312 27.84106445 C46.10494576 29.24333278 46.08385837 30.6456158 46.06361389 32.04791069 C46.00550956 35.89129932 45.93450014 39.73435745 45.86138344 43.5774858 C45.78510826 47.70561274 45.7207987 51.83392732 45.65515137 55.9622345 C45.54070695 63.06285417 45.41897361 70.16331812 45.29248047 77.26373291 C45.11313531 87.34304594 44.94770144 97.42254923 44.78635025 107.5021646 C44.45350326 128.28204496 44.10210242 149.06158828 43.74602699 169.84108174 C43.62963989 176.63825956 43.514452 183.435457 43.39990234 190.23266602 C43.05700356 210.57221843 42.7098 230.91167739 42.34711552 251.25088787 C42.21662031 258.57252838 42.08725288 265.89416809 41.96627808 273.2159729 C41.61355105 294.5278699 41.23742928 315.76322992 39.42666626 337.01159668 C39.14285319 340.35209563 38.87840249 343.69373664 38.61791992 347.03613281 C38.27059877 351.49201476 37.91964132 355.94757042 37.56445312 360.40283203 C35.49004734 386.59924135 34.68407873 412.76085799 34.24609375 439.03125 C34.22113831 440.50330399 34.22113831 440.50330399 34.19567871 442.00509644 C34.12826361 446.42017854 34.08880871 450.83022232 34.14331055 455.24560547 C34.15121613 455.98648407 34.1591217 456.72736267 34.16726685 457.49069214 C34.19317486 459.42623807 34.23281142 461.36158719 34.27368164 463.296875 C34.02070074 467.66456751 32.48084483 469.72504571 30.09765625 473.3359375 C28.80010724 479.97697429 28.95717387 486.90936548 28.98413086 493.65087891 C28.98391182 495.11610489 28.98391182 495.11610489 28.98368835 496.6109314 C28.9843787 499.80314443 28.99212952 502.99529731 29 506.1875 C29.0018673 508.41523202 29.00328973 510.64296445 29.00428772 512.87069702 C29.00808829 518.7067378 29.01789734 524.54275332 29.0289917 530.37878418 C29.03925894 536.34496723 29.04379668 542.3111544 29.04882812 548.27734375 C29.05952201 559.96355271 29.0765686 571.649743 29.09765625 583.3359375 C29.8492099 583.47165665 30.60076355 583.60737579 31.37509155 583.74720764 C32.36296661 583.92610031 33.35084167 584.10499298 34.36865234 584.28930664 C35.34708099 584.46627579 36.32550964 584.64324493 37.33358765 584.82557678 C40.48146864 585.40680505 43.60531961 586.04551061 46.72265625 586.7734375 C47.72554687 586.99902344 48.7284375 587.22460938 49.76171875 587.45703125 C50.91800781 587.89208984 50.91800781 587.89208984 52.09765625 588.3359375 C52.42765625 589.3259375 52.75765625 590.3159375 53.09765625 591.3359375 C55.17073335 591.81764836 57.24798462 592.28502402 59.33789062 592.6875 C64.71885262 593.95181662 69.75421327 596.22193168 74.84765625 598.3359375 C76.02980713 598.82360596 77.21195801 599.31127441 78.42993164 599.8137207 C94.58423026 606.5454945 109.93389202 613.44429698 124.1015625 623.80078125 C131.23797349 628.702408 139.62731278 630.21034436 147.9140625 632.296875 C171.73951635 638.40596573 171.73951635 638.40596573 178.09765625 647.3359375 C180.26363412 651.30220866 181.77068117 655.48123059 183.3828125 659.6953125 C185.09785928 663.66408617 187.54603399 666.77172223 190.28515625 670.0859375 C191.26678291 671.31027045 192.24723987 672.53554207 193.2265625 673.76171875 C193.71012207 674.36322754 194.19368164 674.96473633 194.69189453 675.58447266 C196.73181246 678.12604459 198.74613247 680.68215407 200.72265625 683.2734375 C201.35429688 684.08683594 201.9859375 684.90023437 202.63671875 685.73828125 C209.05688535 697.15381812 206.55740576 723.38782372 203.50244141 735.86206055 C201.05951456 744.39226559 201.05951456 744.39226559 198.23828125 747.16015625 C195.90246625 748.44314952 193.59625877 749.40622494 191.09765625 750.3359375 C185.15721288 752.72376278 179.67456158 755.6995783 174.09765625 758.8359375 C159.92745405 766.77077646 147.72510722 771.69207353 131.28515625 771.7109375 C130.17333984 771.73542969 129.06152344 771.75992188 127.91601562 771.78515625 C118.15066624 771.81944068 109.84519533 769.69933057 101.78515625 764.0234375 C88.03660759 754.90305062 88.03660759 754.90305062 72.09765625 752.3359375 C70.75536746 752.63114878 69.41778356 752.95363819 68.09765625 753.3359375 C68.071875 754.03460937 68.04609375 754.73328125 68.01953125 755.453125 C67.9628125 756.36320313 67.90609375 757.27328125 67.84765625 758.2109375 C67.77804687 759.56832031 67.77804687 759.56832031 67.70703125 760.953125 C67.5059375 761.73945312 67.30484375 762.52578125 67.09765625 763.3359375 C65.17578125 764.40625 65.17578125 764.40625 63.09765625 765.3359375 C62.00237129 767.12887259 62.00237129 767.12887259 61.09765625 769.3359375 C59.26562465 772.38656025 57.41722051 775.42644483 55.55859375 778.4609375 C53.89791984 781.72900167 53.67273732 783.89548904 54.71875 787.44140625 C54.98816406 788.12847656 55.25757813 788.81554687 55.53515625 789.5234375 C55.93541016 790.56564453 55.93541016 790.56564453 56.34375 791.62890625 C56.97295815 793.33162613 56.97295815 793.33162613 58.09765625 794.3359375 C58.6362171 798.73418441 58.3513192 801.31420636 55.78515625 804.8359375 C51.01220022 811.87402521 50.40472184 820.83931323 49.61328125 829.1328125 C49.53553467 829.93605957 49.45778809 830.73930664 49.37768555 831.56689453 C49.23576567 833.12880959 49.11139409 834.69244771 49.00708008 836.25732422 C48.5772986 841.27425049 47.29651723 843.56471571 44.09765625 847.3359375 C43.55507684 850.0176908 43.55507684 850.0176908 43.59765625 852.7734375 C43.2960791 857.77961818 42.39679335 860.41263932 39.09765625 864.3359375 C38.64003906 864.944375 38.18242188 865.5528125 37.7109375 866.1796875 C34.55378465 870.22349483 32.25069492 872.13755641 27.09765625 873.3359375 C26.76765625 873.6659375 26.43765625 873.9959375 26.09765625 874.3359375 C22.54574783 874.57373796 19.00072841 874.73187081 15.44335938 874.85351562 C11.45870065 875.03510368 8.6031614 875.27926346 5.09765625 877.3359375 C4.10765625 877.3359375 3.11765625 877.3359375 2.09765625 877.3359375 C0.38624259 886.07107887 -0.87220619 894.85235822 -2.07958984 903.66772461 C-2.39942798 906.00215591 -2.72284488 908.33606914 -3.046875 910.66992188 C-3.47119806 913.72735941 -3.88211062 916.78622404 -4.28588867 919.84643555 C-4.68430477 922.83765781 -5.13914237 925.81227138 -5.63793945 928.78833008 C-7.21890582 936.79877057 -7.21890582 936.79877057 -5.4453125 944.51171875 C-4.66800781 945.54683594 -3.89070312 946.58195313 -3.08984375 947.6484375 C-2.23183187 948.89182195 -1.38188497 950.140801 -0.5390625 951.39453125 C-0.09868652 952.03374512 0.34168945 952.67295898 0.79541016 953.33154297 C12.01973397 970.60782691 18.62472249 992.26265409 23.47265625 1012.0859375 C23.8123645 1013.46483154 23.8123645 1013.46483154 24.15893555 1014.87158203 C27.91666429 1031.20449846 29.60643784 1047.50897631 29.48876953 1064.24804688 C29.47261457 1066.96795415 29.48878223 1069.68638553 29.5078125 1072.40625 C29.52790181 1088.13449491 27.73350561 1103.37009772 23.16015625 1118.4609375 C22.92103516 1119.30140625 22.68191406 1120.141875 22.43554688 1121.0078125 C21.23633655 1125.09588571 19.90627087 1128.74208804 17.90625 1132.50390625 C14.73264899 1139.39955729 15.87700109 1147.12723675 16.1796875 1154.52954102 C16.65399065 1167.28423921 14.59658719 1178.36693361 8.66015625 1189.7109375 C8.33378174 1190.34467285 8.00740723 1190.9784082 7.67114258 1191.63134766 C5.44908255 1195.90488735 3.120019 1200.11890392 0.79296875 1204.3359375 C-0.0743689 1205.9149585 -0.0743689 1205.9149585 -0.95922852 1207.52587891 C-2.10329029 1209.60144974 -3.256979 1211.67175223 -4.42163086 1213.73583984 C-7.3619023 1219.04749739 -9.66523056 1224.07230617 -11.24633789 1229.93652344 C-11.89951253 1232.325582 -12.67726686 1234.62708089 -13.515625 1236.95703125 C-19.92934167 1254.99960152 -23.66863898 1273.45455457 -27.1015625 1292.25390625 C-27.39296112 1293.84952896 -27.39296112 1293.84952896 -27.69024658 1295.47738647 C-28.66355651 1300.82398424 -29.62496229 1306.17237048 -30.56787109 1311.52441406 C-32.28168803 1321.16953477 -34.10905782 1330.75734204 -36.4453125 1340.2734375 C-36.63517227 1341.05875351 -36.82503204 1341.84406952 -37.02064514 1342.65318298 C-38.76629327 1349.50802043 -41.43693109 1355.86054419 -44.44921875 1362.24609375 C-48.5676031 1371.00319596 -47.04384407 1378.74098207 -44.2890625 1387.7109375 C-40.28379641 1398.18104153 -33.53065871 1406.30466966 -25.90234375 1414.3359375 C-24.77086628 1415.64285754 -23.64551564 1416.95511551 -22.52734375 1418.2734375 C-20.05199161 1421.13050282 -17.44535763 1423.80878126 -14.74682617 1426.45605469 C-2.69414418 1438.28646592 -2.69414418 1438.28646592 -2.46484375 1444.5234375 C-2.85770145 1447.94691171 -3.43374444 1449.39873889 -4.90234375 1452.3359375 C-4.53463546 1457.43237436 -2.73109369 1460.66152303 0.03515625 1464.8984375 C3.71817335 1470.57335859 6.40602392 1474.77214993 6.22265625 1481.6484375 C6.20460938 1482.53144531 6.1865625 1483.41445312 6.16796875 1484.32421875 C6.13316406 1485.32001953 6.13316406 1485.32001953 6.09765625 1486.3359375 C6.94328125 1486.5421875 7.78890625 1486.7484375 8.66015625 1486.9609375 C13.42089487 1488.86523295 17.59673433 1491.59813272 20.12081909 1496.20227051 C20.90851452 1498.29501639 21.53870902 1500.3812831 22.125 1502.5390625 C22.35971008 1503.3258992 22.59442017 1504.1127359 22.83624268 1504.92341614 C23.59116619 1507.47172859 24.3127855 1510.02822875 25.03515625 1512.5859375 C25.55582999 1514.35808273 26.07904385 1516.12948354 26.60473633 1517.90014648 C27.8934497 1522.25496708 29.15893248 1526.61608901 30.41674805 1530.97991943 C32.00171781 1536.464091 33.62970901 1541.93512237 35.28515625 1547.3984375 C35.59195313 1548.41196289 35.89875 1549.42548828 36.21484375 1550.46972656 C39.6848079 1561.6486972 43.85589158 1572.85240816 49.09765625 1583.3359375 C48.98967184 1584.84474551 48.8656729 1586.35241677 48.734375 1587.859375 C48.67666125 1595.75718065 51.85739167 1602.37138628 54.88095093 1609.5213623 C56.6476527 1613.70906104 58.34386347 1617.92514479 60.04296875 1622.140625 C60.38806992 1622.99402466 60.73317108 1623.84742432 61.08872986 1624.72668457 C64.44462759 1633.08320244 67.45386084 1641.53869427 70.28515625 1650.0859375 C70.51156799 1650.768909 70.73797974 1651.45188049 70.97125244 1652.1555481 C74.34549342 1662.41185716 77.22699809 1672.69563388 79.09765625 1683.3359375 C80.15533203 1683.50222656 80.15533203 1683.50222656 81.234375 1683.671875 C94.62784502 1686.7781368 103.78145973 1695.77079577 111.00390625 1706.90625 C116.90504799 1716.37885612 120.35095649 1726.58373641 123.65087891 1737.17773438 C123.92593262 1738.04591797 124.20098633 1738.91410156 124.484375 1739.80859375 C124.72373779 1740.58468994 124.96310059 1741.36078613 125.2097168 1742.16040039 C126.18795395 1744.55717555 127.5247692 1746.29356013 129.09765625 1748.3359375 C129.48289008 1750.49324694 129.53386577 1752.53879186 129.59375 1754.7265625 C130.08311652 1757.26064649 130.78582399 1758.76971133 131.99609375 1761.015625 C134.39499765 1765.59578923 135.35504479 1770.15615453 136.28515625 1775.2109375 C136.60974722 1776.89626474 136.93646603 1778.58118398 137.265625 1780.265625 C137.40250732 1781.00022949 137.53938965 1781.73483398 137.68041992 1782.49169922 C138.03895641 1784.41755841 138.03895641 1784.41755841 139.09765625 1786.3359375 C139.09947215 1787.87709549 139.04028017 1789.41856479 138.94921875 1790.95703125 C137.88187263 1803.09256269 137.88187263 1803.09256269 142.53515625 1813.7734375 C147.47059096 1819.81440958 146.84392952 1826.54973317 146.74584961 1834.01538086 C146.71399182 1842.05235439 148.70465807 1846.74644023 153.09765625 1853.3359375 C154.16711041 1861.50606984 152.68196809 1868.03697521 149.09765625 1875.3359375 C148.35515625 1877.0065625 148.35515625 1877.0065625 147.59765625 1878.7109375 C145.49471879 1882.39107806 143.59731504 1884.66048143 139.6953125 1886.41796875 C133.63157749 1887.96517584 127.44667089 1887.73286437 121.21484375 1887.81445312 C109.98583752 1887.91962076 109.98583752 1887.91962076 100.47021484 1893.01245117 C100.05852051 1893.57295166 99.64682617 1894.13345215 99.22265625 1894.7109375 C95.43709568 1899.80853894 89.89311168 1901.25904175 84.09765625 1903.3359375 C83.33582031 1903.6453125 82.57398438 1903.9546875 81.7890625 1904.2734375 C73.67396021 1907.56377137 65.87428008 1907.4391429 57.30078125 1907.12109375 C51.42413909 1907.01649332 46.50704744 1907.98967712 41.09765625 1910.3359375 C40.76765625 1910.6659375 40.43765625 1910.9959375 40.09765625 1911.3359375 C38.48091031 1911.49468628 36.85759341 1911.58730065 35.234375 1911.65234375 C33.70067261 1911.7155481 33.70067261 1911.7155481 32.13598633 1911.7800293 C30.47732544 1911.83864136 30.47732544 1911.83864136 28.78515625 1911.8984375 C27.65682373 1911.9394458 26.52849121 1911.9804541 25.3659668 1912.02270508 C-22.24551123 1913.64364988 -22.24551123 1913.64364988 -37.90234375 1902.3359375 C-44.69608397 1895.82743065 -47.57477773 1890.34131449 -48.08984375 1880.8984375 C-47.74078222 1864.52427834 -47.74078222 1864.52427834 -44.78515625 1859.3984375 C-42.64233319 1857.46142231 -40.24800681 1856.44926032 -37.53125 1855.55859375 C-30.70989169 1853.30557282 -28.19861411 1850.70731239 -24.6875 1844.45703125 C-23.10118773 1841.68358814 -21.36133979 1839.14888728 -19.46508789 1836.58129883 C-12.41140043 1826.95841626 -7.61846767 1816.48177841 -7.90234375 1804.3359375 C-8.34277677 1802.11627843 -8.34277677 1802.11627843 -8.90234375 1800.3359375 C-9.89234375 1800.1090625 -10.88234375 1799.8821875 -11.90234375 1799.6484375 C-17.91116425 1797.92639748 -23.62624833 1794.7799461 -26.90234375 1789.3359375 C-27.3347168 1786.06225586 -27.3347168 1786.06225586 -27.4140625 1782.17578125 C-27.43192307 1781.4774115 -27.44978363 1780.77904175 -27.46818542 1780.05950928 C-27.52240184 1777.79755218 -27.55609745 1775.53578371 -27.58984375 1773.2734375 C-27.62458635 1771.72433722 -27.66055882 1770.17526404 -27.69775391 1768.6262207 C-27.84431344 1762.09593564 -27.93348434 1755.57096404 -27.8515625 1749.0390625 C-27.8410083 1748.16902588 -27.8304541 1747.29898926 -27.81958008 1746.40258789 C-27.79237533 1744.87015854 -27.7503927 1743.3378843 -27.69018555 1741.80639648 C-27.590516 1737.3937536 -28.11217056 1734.78709512 -30.90234375 1731.3359375 C-33.68461848 1728.95484956 -33.68461848 1728.95484956 -36.83984375 1726.7734375 C-44.65677596 1721.1843794 -44.65677596 1721.1843794 -46.90234375 1718.3359375 C-46.8359375 1716.109375 -46.8359375 1716.109375 -46.33984375 1713.7109375 C-46.1039749 1711.00774727 -46.1039749 1711.00774727 -46.90234375 1708.3359375 C-50.26671703 1704.92815295 -54.10463428 1702.39739575 -58.03710938 1699.68945312 C-86.87316347 1678.76444214 -94.69944266 1643.39605693 -101.84375 1610.43359375 C-105.83069371 1591.25246107 -105.83069371 1591.25246107 -111.08984375 1572.3984375 C-111.30318359 1571.72055176 -111.51652344 1571.04266602 -111.73632812 1570.34423828 C-113.27757658 1565.93817679 -115.50911685 1563.46776026 -118.90234375 1560.3359375 C-122.58037035 1556.27306506 -124.96360321 1552.5684761 -127.08984375 1547.5234375 C-127.37682129 1546.85183594 -127.66379883 1546.18023438 -127.95947266 1545.48828125 C-129.80550699 1541.12052722 -131.54192699 1536.71326162 -133.2578125 1532.29296875 C-140.5424738 1513.56996086 -149.30122643 1497.67260576 -160.90234375 1481.3359375 C-161.86123687 1479.97565485 -162.81956668 1478.61497495 -163.77734375 1477.25390625 C-165.75901749 1474.44079114 -167.74348675 1471.62968073 -169.73046875 1468.8203125 C-170.24416016 1468.09392578 -170.75785156 1467.36753906 -171.28710938 1466.61914062 C-172.39732478 1465.04980349 -173.50802891 1463.48081203 -174.61914062 1461.91210938 C-182.65409079 1450.55663837 -190.532816 1439.13661579 -197.90234375 1427.3359375 C-198.340625 1426.63903809 -198.77890625 1425.94213867 -199.23046875 1425.22412109 C-213.18222792 1402.88591845 -219.11815622 1381.85091597 -219.08984375 1355.4609375 C-219.09056885 1354.76308136 -219.09129395 1354.06522522 -219.09204102 1353.34622192 C-219.09093689 1343.6110159 -218.70733819 1333.98018908 -217.90234375 1324.2734375 C-216.3156629 1304.81564618 -214.97943836 1284.53566498 -219.24609375 1265.35546875 C-219.90234375 1262.3359375 -219.90234375 1262.3359375 -219.90234375 1258.3359375 C-221.26366261 1259.1786587 -222.61595534 1260.0359596 -223.96484375 1260.8984375 C-224.71894531 1261.37410156 -225.47304688 1261.84976562 -226.25 1262.33984375 C-232.94533473 1267.37860081 -237.77359512 1273.61071384 -242.58984375 1280.3984375 C-251.96742186 1293.33233759 -261.80873942 1304.87820087 -273.90234375 1315.3359375 C-274.46743652 1315.82835937 -275.0325293 1316.32078125 -275.61474609 1316.828125 C-282.41788364 1322.75010499 -289.32966482 1328.51873275 -296.3359375 1334.19921875 C-298.86408515 1336.30408445 -301.29253928 1338.48556835 -303.71484375 1340.7109375 C-312.31414595 1348.51855791 -321.3507345 1355.51101446 -331.24609375 1361.59375 C-336.11256051 1364.78557967 -340.47144507 1368.57577119 -344.90234375 1372.3359375 C-345.60101563 1372.87605469 -346.2996875 1373.41617187 -347.01953125 1373.97265625 C-358.73144319 1383.30926075 -366.27084442 1397.2187623 -369.58984375 1411.5859375 C-371.32799142 1417.89960434 -373.36079558 1420.43432586 -378.94921875 1423.71875 C-380.41101563 1424.51925781 -380.41101563 1424.51925781 -381.90234375 1425.3359375 C-384.12237573 1426.7166891 -386.32949693 1428.10848282 -388.52734375 1429.5234375 C-389.11507568 1429.89871582 -389.70280762 1430.27399414 -390.30834961 1430.66064453 C-431.46166451 1457.17102295 -460.62295394 1495.7068683 -471.4296875 1543.67675781 C-472.73391079 1549.82870364 -473.89234688 1555.91298164 -474.08984375 1562.2109375 C-474.66575269 1568.16199656 -479.05665456 1572.08543893 -482.90234375 1576.3359375 C-483.61003906 1577.18542969 -484.31773437 1578.03492188 -485.046875 1578.91015625 C-491.64153662 1586.66928064 -498.97161472 1593.42796414 -508.90234375 1596.3359375 C-508.96421875 1597.4496875 -509.02609375 1598.5634375 -509.08984375 1599.7109375 C-509.63952896 1604.27817489 -511.42716918 1607.76107208 -513.6484375 1611.74609375 C-515.71663429 1616.01778992 -516.70320082 1620.55696075 -517.875 1625.140625 C-523.03612542 1644.81801861 -532.09935033 1659.41329815 -548.13671875 1672.11328125 C-551.65754292 1674.94287017 -554.98751172 1677.95320139 -558.3203125 1681 C-560.39447531 1682.87647407 -562.49412661 1684.70662015 -564.61328125 1686.53125 C-569.37839715 1690.69396965 -573.86922148 1695.1108334 -578.33984375 1699.5859375 C-579.18023193 1700.42713135 -580.02062012 1701.2683252 -580.88647461 1702.13500977 C-586.64098208 1707.94665339 -591.8874218 1713.87536211 -596.90234375 1720.3359375 C-598.56350266 1722.31972921 -600.23043256 1724.29869917 -601.90234375 1726.2734375 C-606.02399975 1731.20150445 -609.90892366 1736.26287985 -613.69921875 1741.44921875 C-615.33937263 1743.59828563 -616.97927584 1745.51411682 -618.796875 1747.49609375 C-622.69568607 1752.00044391 -625.1841442 1757.16294448 -627.83984375 1762.4609375 C-628.89699618 1764.51960276 -629.95428691 1766.578197 -631.01171875 1768.63671875 C-632.66054529 1771.87760721 -634.2962411 1775.12440145 -635.91796875 1778.37890625 C-639.70769848 1785.79013004 -644.13420181 1791.37095985 -649.90234375 1797.3359375 C-650.97151267 1798.52108521 -652.0363357 1799.71016257 -653.09765625 1800.90234375 C-676.76294757 1827.28558236 -676.76294757 1827.28558236 -693.63671875 1828.5390625 C-700.16305834 1828.64050819 -704.98025764 1828.12937434 -710.90234375 1825.3359375 C-711.23234375 1825.0059375 -711.56234375 1824.6759375 -711.90234375 1824.3359375 C-713.92145661 1824.20251595 -715.94295923 1824.10468429 -717.96484375 1824.0234375 C-726.64929341 1823.36925952 -731.24058233 1821.41904398 -737.08984375 1814.9609375 C-738.84662505 1812.87262354 -740.56369002 1810.75877087 -742.26953125 1808.62890625 C-745.04524315 1805.19101471 -747.99630468 1802.45526833 -751.44921875 1799.73046875 C-753.53031141 1797.73329112 -753.86213947 1795.80060614 -754.10546875 1792.98828125 C-754.2719551 1783.34594699 -752.35763266 1776.22845556 -746.9609375 1768.26953125 C-745.80380341 1766.15594685 -745.52768525 1764.66039905 -745.33984375 1762.2734375 C-744.9040242 1758.35106158 -743.89557814 1756.5110926 -741.80859375 1753.25390625 C-740.68450816 1750.87491476 -740.55895592 1748.89277602 -740.40234375 1746.2734375 C-740.04599323 1740.69061272 -737.89897638 1737.63974438 -734.27734375 1733.4609375 C-732.90234375 1732.3359375 -732.90234375 1732.3359375 -730.90234375 1732.3359375 C-730.68320312 1731.32015625 -730.4640625 1730.304375 -730.23828125 1729.2578125 C-727.19327852 1715.76998031 -723.07493641 1704.29529275 -711.90234375 1695.3359375 C-710.91234375 1695.0059375 -709.92234375 1694.6759375 -708.90234375 1694.3359375 C-707.59631106 1691.9876065 -707.59631106 1691.9876065 -706.40234375 1689.0859375 C-701.04444692 1677.94680384 -692.62824639 1669.47347106 -683.1171875 1661.75 C-680.40322268 1658.79192194 -679.86189441 1656.18332242 -678.90234375 1652.3359375 C-678.24234375 1652.0059375 -677.58234375 1651.6759375 -676.90234375 1651.3359375 C-676.42623342 1649.32278716 -676.42623342 1649.32278716 -676.140625 1646.90625 C-675.0315872 1640.83515892 -672.38145279 1636.3612907 -669.08984375 1631.2109375 C-668.30770508 1629.94830078 -668.30770508 1629.94830078 -667.50976562 1628.66015625 C-663.35844231 1621.97450448 -663.35844231 1621.97450448 -661.36572266 1619.18457031 C-658.4116151 1614.9437031 -658.4116151 1614.9437031 -658.07421875 1609.83984375 C-658.48414063 1608.10541016 -658.48414063 1608.10541016 -658.90234375 1606.3359375 C-659.04047365 1603.63443537 -659.13178683 1600.97410237 -659.15234375 1598.2734375 C-659.17296875 1597.59216797 -659.19359375 1596.91089844 -659.21484375 1596.20898438 C-659.25179512 1591.40068728 -658.14409858 1588.51548039 -655.90234375 1584.3359375 C-655.0716244 1581.68100801 -654.45516216 1578.9853964 -653.83984375 1576.2734375 C-650.90122872 1563.56304236 -650.90122872 1563.56304236 -645.62890625 1559.39453125 C-642.93379792 1557.74210058 -639.93126503 1557.16740609 -636.90234375 1556.3359375 C-636.57234375 1555.3459375 -636.24234375 1554.3559375 -635.90234375 1553.3359375 C-631.61234375 1553.3359375 -627.32234375 1553.3359375 -622.90234375 1553.3359375 C-623.11890625 1550.3040625 -623.11890625 1550.3040625 -623.33984375 1547.2109375 C-623.30515331 1538.55567374 -620.3034885 1532.59809813 -615.90234375 1525.3359375 C-615.46325684 1524.60761719 -615.02416992 1523.87929687 -614.57177734 1523.12890625 C-612.67174272 1519.99183903 -610.75751609 1516.86382641 -608.83105469 1513.74291992 C-603.81185626 1505.61164359 -599.66732069 1498.57774622 -598.359375 1488.9765625 C-597.83586711 1485.95185022 -596.89967285 1483.23982152 -595.90234375 1480.3359375 C-595.50944268 1478.98914006 -595.12465102 1477.63996182 -594.74609375 1476.2890625 C-591.56496944 1465.0883274 -587.71691429 1454.26810753 -583.41796875 1443.44628906 C-581.50879422 1438.62098509 -579.70531833 1433.85318965 -578.28515625 1428.859375 C-574.93178162 1417.26485282 -564.19748063 1406.42800545 -555.6015625 1398.109375 C-553.31420741 1395.72211244 -552.91652013 1393.91491143 -552.83642578 1390.64379883 C-552.86075684 1389.5792749 -552.88508789 1388.51475098 -552.91015625 1387.41796875 C-552.92691406 1386.24556641 -552.94367188 1385.07316406 -552.9609375 1383.86523438 C-553.00486222 1381.40674173 -553.05681664 1378.94837815 -553.1171875 1376.49023438 C-553.19869628 1369.71389106 -553.16518352 1364.35754577 -549.90234375 1358.3359375 C-547.86102841 1356.34043008 -546.14453731 1354.85889563 -543.83984375 1353.2734375 C-543.26274658 1352.85497559 -542.68564941 1352.43651367 -542.09106445 1352.00537109 C-540.92295857 1351.16250127 -539.7487625 1350.32800143 -538.56835938 1349.50244141 C-537.06610366 1348.45059824 -535.5843911 1347.3695616 -534.10546875 1346.28515625 C-521.76436195 1337.3359375 -521.76436195 1337.3359375 -516.90234375 1337.3359375 C-516.86496094 1336.65789062 -516.82757812 1335.97984375 -516.7890625 1335.28125 C-516.11517303 1325.7410893 -514.87641489 1317.77295245 -508.3046875 1310.515625 C-506.90234375 1309.3359375 -506.90234375 1309.3359375 -504.90234375 1309.3359375 C-505.00546875 1308.3871875 -505.10859375 1307.4384375 -505.21484375 1306.4609375 C-505.22826954 1299.82859588 -500.92999459 1294.09232141 -497.71484375 1288.5234375 C-495.93000652 1285.5700561 -495.93000652 1285.5700561 -495.0703125 1283.16796875 C-493.4509932 1279.24152562 -491.41317463 1275.57363577 -489.40234375 1271.8359375 C-478.34480136 1251.49188758 -478.34480136 1251.49188758 -470.71875 1229.734375 C-469.90234375 1227.3359375 -469.90234375 1227.3359375 -468.47460938 1225.93774414 C-465.60928289 1223.01858155 -464.3991663 1219.12841201 -462.83984375 1215.3984375 C-462.47842285 1214.54540039 -462.11700195 1213.69236328 -461.74462891 1212.81347656 C-459.45660404 1207.22287539 -457.95401516 1202.05701106 -457.64453125 1195.9765625 C-456.69004844 1192.58061313 -454.91787644 1190.82236304 -452.56933594 1188.24609375 C-449.71968583 1184.98076534 -447.448608 1181.33809384 -445.08984375 1177.7109375 C-444.03969331 1176.12067701 -442.98890681 1174.53083637 -441.9375 1172.94140625 C-440.48257502 1170.73410725 -439.02794063 1168.52661765 -437.57373047 1166.31884766 C-436.40086431 1164.54728768 -435.21608819 1162.78436738 -434.02734375 1161.0234375 C-433.36992187 1160.03730469 -432.7125 1159.05117187 -432.03515625 1158.03515625 C-429.90234375 1155.3359375 -429.90234375 1155.3359375 -426.8125 1152.8046875 C-423.87634472 1150.31388195 -422.71587794 1148.62978347 -421.21484375 1145.1484375 C-419.20255517 1140.53607844 -419.20255517 1140.53607844 -415.90234375 1138.3359375 C-414.91234375 1138.3359375 -413.92234375 1138.3359375 -412.90234375 1138.3359375 C-412.79744629 1137.64330811 -412.69254883 1136.95067871 -412.58447266 1136.23706055 C-411.78891485 1132.85351958 -410.49502766 1130.05110565 -408.98828125 1126.91796875 C-408.38953577 1125.65996573 -407.79090743 1124.40190695 -407.19238281 1123.14379883 C-406.87950317 1122.49134186 -406.56662354 1121.83888489 -406.2442627 1121.16665649 C-401.90669528 1112.11299073 -397.59909752 1103.08693817 -394.15234375 1093.6484375 C-391.7910839 1087.25339009 -388.98485139 1081.19773964 -385.83984375 1075.1484375 C-385.43991211 1074.36960205 -385.03998047 1073.5907666 -384.62792969 1072.78833008 C-381.3668065 1066.67737858 -377.72790954 1061.21964803 -371.90234375 1057.3359375 C-370.95805572 1055.46525852 -370.95805572 1055.46525852 -370.33984375 1053.2734375 C-370.08589844 1052.47164062 -369.83195312 1051.66984375 -369.5703125 1050.84375 C-368.9317799 1048.44645217 -368.5382343 1046.09656034 -368.15234375 1043.6484375 C-367.0452101 1038.41223982 -364.08994095 1036.36439473 -359.90234375 1033.3359375 C-358.48902824 1032.25423792 -357.09321748 1031.14932408 -355.71484375 1030.0234375 C-355.08191406 1029.53230469 -354.44898438 1029.04117187 -353.796875 1028.53515625 C-346.76607947 1020.37363484 -346.07183128 1008.83421255 -344.27929688 998.61523438 C-342.24240949 987.64268299 -339.59968229 977.65738457 -331.90234375 969.3359375 C-330.48179307 967.33457506 -330.48179307 967.33457506 -329.90234375 965.3359375 C-330.19031394 963.99207662 -330.53450244 962.6601662 -330.90234375 961.3359375 C-331.56952882 954.44169178 -331.56952882 954.44169178 -329.78515625 951.484375 C-328.40234375 949.8359375 -328.40234375 949.8359375 -325.90234375 947.3359375 C-326.47082031 947.00722656 -327.03929687 946.67851563 -327.625 946.33984375 C-333.06964156 942.98579912 -336.71338491 939.5173573 -340.39453125 934.2890625 C-342.39652258 931.69580948 -344.0759064 930.45494448 -347.34375 929.984375 C-348.88869141 929.84902344 -348.88869141 929.84902344 -350.46484375 929.7109375 C-374.64708404 926.46332259 -399.70128457 916.50316072 -418.90234375 901.3359375 C-419.44850342 900.95743652 -419.99466309 900.57893555 -420.55737305 900.18896484 C-426.70019631 895.59017853 -429.61680067 889.19957605 -432.96484375 882.4609375 C-433.61610886 881.1736951 -434.26747832 879.88650548 -434.91894531 878.59936523 C-472.10675688 804.5153644 -472.10675688 804.5153644 -465.90234375 783.0859375 C-460.90828813 764.35822893 -472.14977717 743.09451664 -480.83984375 727.0234375 C-492.5699139 705.30975944 -501.94440439 681.51695467 -494.62109375 656.80078125 C-493.78325809 654.17655205 -493.78325809 654.17655205 -493.46484375 650.7109375 C-491.2198997 637.24127322 -482.77943222 629.07642394 -472.03051758 621.38769531 C-466.68531314 617.88179521 -461.00467682 615.0955553 -455.27734375 612.2734375 C-447.16188627 608.27419044 -439.78829031 604.25147941 -432.90234375 598.3359375 C-433.83046875 597.7378125 -434.75859375 597.1396875 -435.71484375 596.5234375 C-440.4987637 593.24035518 -442.15833363 591.49968471 -443.46484375 585.7734375 C-443.71363281 584.70867188 -443.96242188 583.64390625 -444.21875 582.546875 C-444.83109328 579.67061112 -445.37672967 576.79148691 -445.90234375 573.8984375 C-446.90958262 568.65107807 -446.90958262 568.65107807 -449.90234375 564.3359375 C-452.45552857 563.40557564 -454.97464862 562.70872024 -457.625 562.109375 C-459.90234375 561.3359375 -459.90234375 561.3359375 -461.90234375 558.3359375 C-462.6837696 552.64269199 -461.26233411 549.64646508 -458.09375 545.1328125 C-456.72472345 543.23756418 -456.72472345 543.23756418 -455.90234375 540.3359375 C-456.62421875 540.0884375 -457.34609375 539.8409375 -458.08984375 539.5859375 C-461.76631728 537.95194927 -465.06336084 536.01390331 -466.90234375 532.3359375 C-467.02707147 529.88489284 -467.08750706 527.47462402 -467.08984375 525.0234375 C-467.10402344 523.70730469 -467.11820312 522.39117188 -467.1328125 521.03515625 C-466.91721622 517.57465319 -466.29676929 515.44997082 -464.90234375 512.3359375 C-464.90234375 511.3459375 -464.90234375 510.3559375 -464.90234375 509.3359375 C-466.01609375 508.8821875 -467.12984375 508.4284375 -468.27734375 507.9609375 C-471.90234375 506.3359375 -471.90234375 506.3359375 -473.90234375 504.3359375 C-475.77197739 494.10215334 -470.41282969 486.62586516 -465.10546875 478.4296875 C-462.90626786 474.60250673 -461.41915987 470.47116805 -459.90234375 466.3359375 C-460.81113281 466.31015625 -461.71992188 466.284375 -462.65625 466.2578125 C-475.14282049 465.69431599 -486.8895999 463.62893398 -497.90234375 457.3359375 C-497.90234375 456.3459375 -497.90234375 455.3559375 -497.90234375 454.3359375 C-498.75957031 454.18898438 -499.61679687 454.04203125 -500.5 453.890625 C-507.68759555 452.48065699 -513.09399179 451.08993201 -517.90234375 445.3359375 C-519.94947058 441.24168384 -519.81237102 436.74559985 -518.90234375 432.3359375 C-511.70133744 422.72250338 -495.1217755 417.86935757 -483.90234375 415.3359375 C-480.09545067 414.95145754 -476.41328684 414.58046595 -472.90234375 416.3359375 C-472.51046875 415.5934375 -472.11859375 414.8509375 -471.71484375 414.0859375 C-469.90234375 411.3359375 -469.90234375 411.3359375 -467.328125 409.75 C-464.19555726 406.63256544 -464.3294452 404.85842012 -464.26123047 400.58447266 C-464.26654785 399.71870605 -464.27186523 398.85293945 -464.27734375 397.9609375 C-463.82264429 379.24416062 -459.34946872 364.30784087 -446.10913086 350.82592773 C-443.34277298 347.99285775 -441.13820649 345.46547634 -439.52734375 341.8359375 C-435.24440633 332.61114921 -425.4973781 330.43645528 -416.60205078 327.09692383 C-407.63849831 323.92152573 -398.89540984 322.06307303 -389.47631836 320.82250977 C-387.2034779 320.52193441 -384.93503736 320.19718902 -382.66601562 319.86914062 C-369.55853684 318.02628704 -356.88523897 318.25833802 -343.7097168 319.08056641 C-341.57576316 319.21180345 -339.44133203 319.33066544 -337.30664062 319.44921875 C-335.9257354 319.53310276 -334.54487401 319.61771227 -333.1640625 319.703125 C-331.322677 319.81309814 -331.322677 319.81309814 -329.4440918 319.92529297 C-325.75455504 320.35307272 -322.44603647 321.24307349 -318.90234375 322.3359375 C-316.23471048 322.78982053 -313.59653792 323.05233811 -310.90234375 323.3359375 C-310.57234375 324.3259375 -310.24234375 325.3159375 -309.90234375 326.3359375 C-308.9071875 326.44550781 -307.91203125 326.55507813 -306.88671875 326.66796875 C-302.7847146 327.25853367 -299.0086192 328.53823129 -295.15234375 330.0234375 C-294.45351074 330.2910791 -293.75467773 330.5587207 -293.03466797 330.83447266 C-283.77610616 334.46682499 -275.96404216 338.99992371 -268.32421875 345.38671875 C-265.97369587 347.27851055 -263.57198067 348.90601305 -261.02734375 350.5234375 C-255.74341586 353.98403816 -253.14245615 357.45054536 -250.80859375 363.3359375 C-249.73501727 365.70520972 -248.41090087 367.82104045 -247.02734375 370.0234375 C-233.57145428 392.13905781 -232.56443899 416.79558246 -232.6965332 441.91235352 C-232.71500009 445.55426923 -232.71704086 449.19593255 -232.71679688 452.83789062 C-232.72170596 455.1640647 -232.72753159 457.49023706 -232.734375 459.81640625 C-232.73548782 460.89971725 -232.73660065 461.98302826 -232.73774719 463.09916687 C-232.74412704 464.108246 -232.7505069 465.11732513 -232.75708008 466.15698242 C-232.76089188 467.03915939 -232.76470367 467.92133636 -232.76863098 468.83024597 C-232.90667121 471.41703123 -233.37460807 473.80362391 -233.90234375 476.3359375 C-233.89699771 478.2738781 -233.85348209 480.21198577 -233.77734375 482.1484375 C-233.72798524 490.20374603 -235.75565091 495.46538525 -240.9140625 501.59765625 C-242.23003585 503.91231293 -242.06724485 505.71980376 -241.90234375 508.3359375 C-240.79246094 508.26375 -239.68257812 508.1915625 -238.5390625 508.1171875 C-199.01641717 505.77692148 -158.0547459 505.20334853 -120.08984375 517.3984375 C-99.87774779 523.8740137 -79.3239257 525.8249733 -58.22265625 523.6796875 C-41.09964279 522.12044702 -41.09964279 522.12044702 -37.03369141 524.36962891 C-33.81868543 527.44135385 -32.44181957 531.26171965 -30.90234375 535.3359375 C-28.45845311 539.57440055 -26.63951864 541.97457664 -22.15234375 543.9609375 C-21.27835938 544.36054687 -20.404375 544.76015625 -19.50390625 545.171875 C-18.64539063 545.55601562 -17.786875 545.94015625 -16.90234375 546.3359375 C-15.4406052 547.07927895 -13.98192392 547.82868415 -12.52734375 548.5859375 C-10.0012884 549.89733645 -7.6675839 550.67662759 -4.90234375 551.3359375 C-4.99757461 546.6440756 -5.10398321 541.95263125 -5.21972656 537.26123047 C-5.25745591 535.67308054 -5.29239349 534.08486124 -5.32421875 532.49658203 C-5.37111859 530.18236819 -5.42886671 527.86861038 -5.48828125 525.5546875 C-5.49983246 524.87168579 -5.51138367 524.18868408 -5.52328491 523.48498535 C-5.65501509 518.84738859 -6.17303131 514.35326324 -6.83381653 509.76145935 C-8.46299702 497.4060556 -8.77231249 484.93735994 -9.31762695 472.49829102 C-9.44368292 469.71234095 -9.57162773 466.92647835 -9.69949055 464.14061069 C-9.96977389 458.23060435 -10.2355141 452.32040859 -10.49805069 446.41005325 C-10.86106773 438.23851916 -11.23202673 430.06736201 -11.6050371 421.89627878 C-13.32591139 384.17775792 -14.98070758 346.4562683 -16.6248579 308.7343359 C-16.7865417 305.02625686 -16.94829387 301.3181808 -17.11010742 297.61010742 C-17.15027952 296.68946955 -17.19045163 295.76883168 -17.23184106 294.8202957 C-17.79884368 281.834845 -18.37599759 268.84988003 -18.96121396 255.86523791 C-25.55059093 109.65921346 -25.55059093 109.65921346 -25.515625 52.40234375 C-25.51637583 51.4237819 -25.51712665 50.44522005 -25.51790023 49.4370048 C-25.5214931 44.0096692 -25.50660169 38.58310207 -25.45612693 33.15598559 C-25.44220185 31.58285409 -25.43222218 30.00968137 -25.42670083 28.43649793 C-25.41654804 26.33256705 -25.38700422 24.229863 -25.35102844 22.12623596 C-25.33714238 20.97238183 -25.32325632 19.8185277 -25.30894947 18.62970829 C-24.64568285 13.25681725 -22.85877899 8.50230517 -18.52734375 5.0234375 C-17.96273437 4.55292969 -17.398125 4.08242187 -16.81640625 3.59765625 C-11.36939582 0.00707591 -6.33101242 0.01535229 0 0 Z M-624.90234375 1567.3359375 C-622.31644032 1570.84537787 -620.91074715 1572.3317358 -616.90234375 1574.3359375 C-617.23234375 1570.3759375 -617.56234375 1566.4159375 -617.90234375 1562.3359375 C-620.30990121 1562.3359375 -623.14803134 1565.84290566 -624.90234375 1567.3359375 Z " fill="#000000" transform="translate(754.90234375,-0.3359375)"/>
</svg>
